<svg width="12" height="12" viewBox="0 0 12 12" fill="none" xmlns="http://www.w3.org/2000/svg">
                    <path fill-rule="evenodd" clip-rule="evenodd" d="M4.25233 0.295266C4.28498 0.216599 4.26732 0.125621 4.20791 0.0646159C4.14905 0.00360938 4.05861 -0.0161909 3.97887 0.0137774C1.64933 0.897304 0 3.1535 0 5.79235C0 9.21839 2.78177 12 6.2077 12C8.84603 12 11.1023 10.3507 11.9863 8.02117C12.0163 7.94143 11.996 7.85099 11.9355 7.79212C11.8745 7.73272 11.7835 7.71506 11.7048 7.7477C11.0659 8.011 10.3654 8.14693 9.63327 8.14693C6.44325 8.14693 3.85355 5.5574 3.85355 2.36726C3.85355 1.63517 3.98948 0.934675 4.25278 0.295716L4.25233 0.295266Z" fill="black"/>
                  </svg>